<?xml version="1.0" encoding="utf-8"?>
<!DOCTYPE svg PUBLIC "-//W3C//DTD SVG 1.0//EN" "http://www.w3.org/TR/2001/REC-SVG-20010904/DTD/svg10.dtd">
<svg version="1.0" xmlns="http://www.w3.org/2000/svg" width="1600px" height="1600px" viewBox="0 0 1600 1600" preserveAspectRatio="xMidYMid meet">
 <g fill="#ffffff">
  <path d="M518.75 1400.31 c0 -23.13 15.94 -57.97 51.41 -112.81 2.03 -3.13 0.63 -2.50 -7.50 3.13 -12.34 8.75 -21.41 18.75 -26.25 29.38 -3.59 7.50 -4.22 8.13 -9.22 8.13 l-5.31 0 0 -7.81 c0 -20.63 24.38 -45.63 55.94 -57.50 8.91 -3.44 13.13 -4.06 28.44 -4.06 20.16 -0.16 24.06 1.09 32.50 10.78 6.25 7.03 7.34 11.09 7.34 26.56 0 16.56 -4.69 26.56 -18.75 39.53 -17.34 16.25 -38.13 26.41 -57.50 27.97 l-10.63 0.94 0.47 -6.72 c0.47 -6.56 0.47 -6.72 8.44 -8.75 12.81 -3.28 25.47 -9.53 37.66 -18.75 15.78 -11.88 25.47 -25.78 25.47 -36.56 0 -6.56 -8.13 -16.41 -15.94 -19.53 -6.41 -2.34 -7.81 -2.34 -17.50 -0.16 -11.56 2.81 -17.97 5.47 -12.97 5.63 2.03 0 2.66 1.41 2.66 6.72 0 5.78 -2.19 10.16 -14.84 30.78 -8.28 13.28 -18.44 31.41 -22.66 40 -8.13 16.56 -17.19 41.72 -17.19 47.34 0 2.81 -0.94 3.28 -7.03 3.28 l-7.03 0 0 -7.50z"/>
  <path d="M751.56 1378.28 c-2.19 -0.63 -5.31 -3.28 -7.19 -5.94 -2.50 -3.75 -3.75 -4.53 -5.78 -3.28 -1.41 0.78 -6.72 1.25 -11.72 0.94 -7.81 -0.47 -8.91 -0.94 -9.38 -3.91 -0.31 -2.03 -0.63 -3.59 -0.94 -3.59 -0.16 0 -4.06 1.41 -8.75 2.97 -4.69 1.72 -15.63 3.44 -24.22 4.06 -19.06 1.41 -20 0.78 -19.22 -13.28 0.16 -5.16 0.31 -9.38 0 -9.38 -0.16 0 -2.97 1.41 -6.25 2.97 -6.72 3.44 -12.34 9.22 -18.13 18.59 -3.75 5.94 -4.69 6.56 -10.31 6.56 l-6.25 0 0 -6.72 c0 -7.66 6.41 -21.88 14.06 -31.09 l4.69 -5.63 15.31 -0.16 c17.66 0 20.63 0.63 20.63 4.53 0 2.66 1.41 2.97 10.63 3.44 l10.47 0.47 0.47 5.16 c0.31 2.66 0.78 5 1.09 5 0.31 0 4.69 -1.72 9.69 -3.75 11.09 -4.38 18.13 -6.72 25.94 -8.13 4.06 -0.63 5.78 -1.72 5.78 -3.75 0 -5.31 15.63 -34.06 22.81 -42.03 7.19 -7.97 7.50 -8.13 15.31 -7.66 l7.97 0.47 0.47 9.06 c0.47 7.50 -0.31 10.94 -4.22 19.22 -2.50 5.47 -6.88 13.13 -9.53 17.03 l-4.84 7.03 6.41 0 6.25 0 0 6.72 c0 3.75 -0.94 7.66 -1.88 8.91 -2.66 2.81 6.41 -2.66 10.63 -6.41 2.19 -2.03 5.47 -2.97 10.47 -2.97 7.19 0 7.34 0.16 7.34 4.69 0 2.66 0.78 4.69 2.03 4.69 0.94 0 6.72 -3.28 12.81 -7.19 10.47 -6.72 11.25 -7.03 21.09 -6.56 l10.16 0.47 0.47 5.16 c0.31 2.66 0.94 5 1.41 5 0.47 0 3.44 -1.41 6.56 -3.28 5.47 -2.97 6.72 -5.16 13.75 -22.81 0.47 -1.25 -0.47 -2.03 -2.66 -2.03 -2.97 0 -3.28 -0.78 -2.81 -6.56 0.47 -6.72 0.63 -6.72 9.69 -10 7.19 -2.50 10.63 -5 16.88 -12.03 6.88 -7.97 8.44 -8.91 13.91 -8.91 6.09 0 6.09 0 6.09 6.09 0 3.44 -0.63 6.72 -1.56 7.19 -3.44 2.03 -1.25 3.91 4.69 3.91 l6.25 0 0 7.03 0 6.88 -12.03 0.47 -12.19 0.47 -7.50 12.50 c-4.06 6.88 -8.75 16.72 -10.31 21.88 -2.66 8.13 -2.66 9.84 -0.78 12.81 1.25 1.88 2.19 5.94 2.19 9.06 0 5.47 0 5.47 -6.88 5.47 -7.50 0 -9.38 -1.56 -10.94 -8.91 l-1.09 -4.84 -5.78 2.34 c-8.59 3.59 -28.28 4.53 -33.75 1.72 -3.91 -2.03 -5.31 -2.03 -10.94 -0.16 -4.06 1.41 -9.22 1.88 -14.22 1.41 -10.31 -1.25 -10.94 -1.25 -22.19 0 -8.13 0.78 -9.84 1.56 -9.84 3.91 0 5.31 -9.84 7.66 -20.31 4.69z m10.63 -25.63 l-0.47 -3.75 -3.44 4.38 -3.59 4.22 3.59 4.38 3.44 4.53 0.47 -5.16 c0.31 -2.81 0.31 -6.72 0 -8.59z"/>
  <path d="M1033.28 1377.03 c-1.09 -0.31 -2.03 -2.66 -2.03 -4.84 l0 -4.22 -13.59 0 -13.75 0 -0.47 -5.78 c-0.31 -3.28 -0.78 -5.94 -1.25 -5.94 -1.56 0 -12.50 7.50 -14.53 10 -1.41 1.56 -4.53 2.50 -8.91 2.50 -5.78 0 -6.88 -0.47 -6.88 -2.97 0 -3.13 -0.16 -3.13 -6.56 -0.16 -7.97 3.44 -40.78 6.09 -42.50 3.44 -0.63 -1.09 -2.66 -1.09 -6.09 -0.16 -10.16 2.81 -21.56 1.09 -24.84 -3.91 -0.63 -0.94 -1.25 -5.78 -1.25 -10.63 0 -7.03 0.78 -9.69 3.75 -13.28 2.03 -2.50 4.06 -6.25 4.38 -8.28 0.47 -3.44 1.25 -3.91 7.50 -3.91 l7.03 0 0.47 6.72 c0.47 5.63 0 6.88 -2.50 7.66 -2.19 0.47 -3.28 2.50 -3.75 6.25 -0.63 5 -0.47 5.31 3.28 4.38 2.19 -0.47 8.28 -3.91 13.44 -7.50 7.97 -5.63 10.63 -6.56 19.06 -7.03 10.94 -0.78 14.53 0.94 14.53 6.88 0 2.03 0.31 3.75 0.63 3.75 2.19 0 22.81 -10.63 26.41 -13.59 5.78 -4.69 15.16 -5 16.25 -0.47 0.63 2.34 2.19 3.13 6.56 3.13 7.50 0 9.06 1.25 10.31 8.28 0.63 3.13 1.72 5.78 2.34 5.78 0.63 0 3.59 -1.72 6.72 -3.75 2.97 -2.03 6.72 -4.22 8.28 -4.69 1.72 -0.47 4.06 -3.59 5.47 -6.88 2.97 -7.19 10.47 -11.25 20.63 -11.25 8.28 0 12.03 2.97 12.03 9.53 0 4.22 0.47 4.53 5.47 4.53 5.31 0 5.47 0.16 5.47 6.09 0 5.94 0 5.94 -7.34 7.03 -4.22 0.47 -11.25 2.66 -15.63 4.84 -6.88 3.13 -8.28 4.53 -8.28 7.81 0 5.94 -6.56 11.72 -12.81 11.56 -2.81 0 -6.09 -0.47 -7.03 -0.94z"/>
  <path d="M962.50 1194.38 c-33.44 -6.09 -59.06 -14.22 -79.69 -25.16 -61.56 -32.97 -101.25 -87.34 -117.81 -161.41 -11.41 -51.72 -14.38 -143.44 -6.25 -198.44 7.50 -51.09 17.97 -86.56 38.13 -129.06 26.41 -55.63 61.09 -103.28 129.69 -177.97 35 -38.13 46.56 -52.66 54.69 -68.13 8.59 -16.41 11.56 -28.91 9.38 -37.66 -7.03 -26.41 -37.97 -46.72 -89.22 -58.13 -24.22 -5.31 -51.41 -8.75 -70.78 -8.75 -17.81 0 -18.13 -0.16 -18.13 -10.31 0 -6.09 2.81 -7.97 18.59 -12.50 9.22 -2.50 12.50 -2.66 36.72 -0.94 47.66 3.28 81.25 10.47 106.41 23.13 25.94 12.81 42.66 30.16 48.75 50.47 3.44 10.94 3.75 39.38 0.63 51.72 -3.13 12.50 -9.69 27.34 -17.34 39.84 -10.94 17.97 -14.06 21.88 -74.22 92.19 -11.09 12.97 -27.34 33.75 -27.34 35 0 0.63 5.78 4.22 12.66 7.97 11.72 6.09 13.28 6.56 17.81 4.84 7.97 -2.81 18.59 -2.19 23.13 1.56 5.31 4.06 7.97 13.75 6.88 25.16 -1.56 16.72 -10.16 24.38 -25.63 22.66 -8.59 -0.94 -13.91 -5.78 -15.31 -13.75 -0.94 -5.78 -1.56 -6.25 -19.06 -15.63 l-18.13 -9.53 -2.81 3.59 c-4.22 5.47 -24.22 37.50 -30.47 48.91 l-5.47 10 9.84 1.72 c24.22 4.06 22.66 4.06 25.31 -1.09 8.59 -16.72 34.84 -21.25 47.34 -8.13 6.25 6.56 7.97 12.97 8.13 28.13 0.16 16.88 -1.72 23.59 -8.91 31.56 -7.19 7.97 -13.28 10.63 -25 10.63 -15 0 -24.84 -8.59 -26.56 -23.59 l-1.09 -8.28 -18.75 -3.44 c-10.31 -2.03 -19.53 -3.59 -20.63 -3.75 -2.66 0 -17.81 41.41 -21.56 58.91 -0.94 4.84 -0.78 5 5 6.09 3.28 0.47 11.88 2.19 19.06 3.59 l13.28 2.66 3.28 -6.25 c1.72 -3.44 5.94 -8.28 9.06 -10.94 5.16 -4.06 7.50 -4.84 16.72 -5.31 13.44 -0.78 17.19 0 23.59 5.47 8.13 7.03 10.78 14.53 10.78 32.81 0 14.84 -0.31 16.41 -5.16 25.63 -6.88 13.44 -14.38 18.59 -28.13 19.69 -18.75 1.56 -29.22 -6.72 -32.81 -26.09 -1.09 -5.94 -2.66 -9.69 -4.22 -10 -6.72 -2.03 -36.25 -7.34 -36.88 -6.72 -1.41 1.25 -5.16 26.41 -7.03 45.78 -3.91 40.94 0.78 112.97 9.84 151.41 9.53 41.41 27.50 74.53 55 101.56 21.56 21.41 44.22 35 74.84 45.31 29.53 9.84 56.56 12.34 84.06 7.66 60.94 -10.31 111.09 -44.84 143.44 -98.91 19.84 -32.97 43.75 -103.44 53.91 -159.53 7.97 -44.22 9.53 -61.56 9.53 -113.28 0 -48.91 -1.72 -70.94 -7.97 -103.44 -1.25 -6.41 -2.19 -14.38 -2.19 -17.81 0 -5.94 0.16 -6.09 5.31 -6.09 5.16 0 5.16 0.16 8.59 11.41 22.66 76.56 26.72 182.50 10.31 273.28 -7.50 41.25 -20.94 87.19 -35.16 120.16 -30 70 -89.84 119.06 -165.63 135.94 -12.03 2.66 -21.25 3.44 -47.66 3.75 -17.97 0.31 -34.53 0.16 -36.72 -0.16z"/>
  <path d="M946.88 969.69 c-27.97 -6.25 -51.09 -28.75 -58.59 -57.34 -2.34 -8.59 -3.28 -50.16 -1.41 -55.16 0.63 -1.56 2.81 -2.50 6.09 -2.50 5 0 5 0 6.09 9.22 2.50 22.03 14.22 50 26.72 63.91 7.97 8.91 21.25 16.25 29.38 16.25 17.03 0 35.31 -19.06 40.31 -42.19 5 -23.59 -17.19 -75.78 -47.81 -112.03 -11.72 -13.91 -12.50 -15.78 -12.34 -29.06 0 -7.66 1.09 -14.84 2.97 -19.53 13.75 -36.88 75.31 -90.47 140.47 -122.50 43.44 -21.25 77.19 -30.47 107.97 -29.38 14.69 0.63 18.28 1.25 24.22 4.53 10.94 5.94 14.06 12.03 14.06 26.56 0 14.84 -2.81 23.28 -13.28 39.06 -28.59 42.81 -94.69 90.63 -161.88 117.03 -11.56 4.53 -21.09 8.28 -21.25 8.44 -0.16 0 1.09 5.78 2.81 12.66 4.84 20.78 6.88 50.78 4.84 73.91 -2.19 25 -6.41 41.09 -15 58.91 -16.09 32.97 -41.72 46.56 -74.38 39.22z m57.34 -201.72 c36.41 -7.03 89.84 -32.50 127.66 -60.94 15 -11.25 27.34 -22.50 24.84 -22.66 -3.91 0 -2.19 -10 2.66 -15.94 7.50 -9.06 18.75 -28.13 18.75 -31.72 0 -5.94 -5.63 -9.38 -14.69 -9.06 -11.09 0.31 -37.03 7.19 -57.03 14.84 -9.06 3.44 -19.22 6.56 -22.34 7.03 -5.47 0.78 -5.94 0.47 -5.94 -3.28 l0 -4.06 -13.59 8.13 c-44.38 25.78 -82.50 61.09 -96.72 89.06 -4.53 9.06 -4.69 15.16 -0.47 20.63 3.59 4.69 7.97 7.19 14.69 8.91 7.03 1.72 8.91 1.56 22.19 -0.94z"/>
  <path d="M465.63 922.66 c-43.13 -9.22 -83.75 -37.03 -101.88 -69.53 -9.22 -16.72 -17.50 -37.97 -20.63 -53.44 -3.75 -18.13 -3.44 -53.44 0.63 -69.38 6.25 -24.53 19.22 -46.25 38.44 -64.84 27.50 -26.41 60.16 -38.59 99.06 -36.88 21.25 0.94 32.34 3.59 49.22 12.03 28.44 13.91 49.69 39.53 57.81 69.53 3.91 14.69 4.69 41.56 1.72 54.53 -5.31 22.34 -22.50 46.41 -41.41 57.81 -24.38 14.84 -57.50 17.19 -80.78 5.63 -13.91 -6.72 -30.31 -23.13 -36.56 -36.09 -4.06 -8.75 -4.69 -11.72 -4.69 -23.13 0 -16.25 3.28 -23.91 13.75 -32.97 18.44 -15.78 48.59 -18.13 73.75 -5.78 9.53 4.69 10.16 5.31 10.63 10.94 0.47 5.63 0.31 5.78 -4.84 5.78 -2.97 0 -8.44 -1.09 -12.19 -2.50 -3.91 -1.41 -12.03 -2.66 -18.59 -2.66 -14.22 -0.31 -26.88 4.84 -33.13 13.13 -5.63 7.50 -6.41 11.25 -3.59 18.13 3.75 8.91 12.34 16.72 24.84 22.50 9.06 4.22 13.13 5.16 22.03 5.16 9.38 0.16 12.50 -0.63 21.56 -5 20.78 -10.31 35 -30 36.56 -50.94 2.97 -35.47 -32.03 -75.47 -71.56 -82.19 -9.84 -1.72 -13.13 -1.56 -24.06 0.63 -25.16 5.31 -49.53 20.94 -64.84 41.41 -15.63 20.78 -23.44 41.72 -23.44 62.66 0.16 15.47 2.03 22.97 9.53 38.28 9.06 18.44 19.53 31.41 45.16 57.03 24.22 24.38 34.06 30.94 53.91 36.88 36.09 10.47 87.34 -10.31 127.50 -51.88 21.88 -22.81 33.28 -39.84 42.81 -64.69 20 -51.72 12.19 -107.50 -23.75 -170 -18.13 -31.72 -43.13 -63.13 -71.88 -90.94 -49.38 -47.81 -61.25 -59.69 -73.13 -73.44 -44.53 -51.72 -73.28 -101.56 -85.94 -149.22 -5.16 -18.91 -7.03 -49.84 -3.91 -65.16 5.94 -31.09 27.19 -51.41 63.28 -60.78 17.97 -4.69 52.81 -5.63 81.25 -2.34 56.09 6.56 93.59 18.75 112.97 36.56 7.19 6.72 8.13 8.28 8.13 13.91 0 12.81 -11.72 15.31 -26.09 5.78 -30 -19.84 -64.06 -28.75 -110.63 -29.06 -39.22 -0.31 -67.81 7.81 -82.34 23.13 -6.41 6.88 -12.19 20.63 -12.19 29.06 0 17.19 18.59 52.97 47.50 91.09 16.88 22.19 35.63 42.97 76.72 85.16 58.75 60.16 81.88 87.34 103.13 121.09 42.34 67.19 55.16 147.19 34.22 213.59 -13.44 42.19 -37.50 80.78 -70.31 112.19 -24.53 23.44 -47.66 37.19 -77.97 46.25 -12.19 3.59 -17.34 4.22 -39.84 4.69 -17.97 0.31 -28.91 -0.16 -35.94 -1.72z"/>
  <path d="M740.63 618.13 c0 -20.47 22.19 -64.84 49.06 -97.81 5.16 -6.41 19.53 -22.97 31.88 -36.56 32.66 -36.09 65 -77.81 73.91 -95 2.66 -5.16 3.75 -5.94 8.44 -5.94 l5.47 0 0 7.66 c0 4.69 -1.88 13.28 -4.84 21.56 -12.81 36.25 -34.38 68.59 -75.78 113.91 -33.59 36.88 -55.63 64.06 -71.72 89.22 -5.63 8.75 -6.88 9.84 -11.25 9.84 -5 0 -5.16 -0.16 -5.16 -6.88z"/>
 </g>
 <g fill="#ffffff">
  <path d="M528.13 1399.84 c0 -5.63 9.06 -30.78 17.19 -47.34 4.22 -8.59 14.38 -26.72 22.66 -40 8.13 -13.28 14.84 -25 14.84 -26.09 0 -5 -3.75 -0.63 -16.56 19.53 -24.06 37.50 -39.22 69.69 -42.03 89.84 -0.94 6.09 -0.78 7.34 1.41 7.34 1.56 0 2.50 -1.25 2.50 -3.28z m236.88 -27.19 c2.81 -2.03 2.66 -2.19 -2.81 -2.34 -4.22 0 -6.56 -1.09 -8.91 -4.06 -5 -6.41 -4.22 -12.34 2.66 -20.78 22.19 -26.72 34.22 -54.69 24.38 -56.09 -6.88 -0.94 -27.03 28.28 -32.66 47.19 -1.56 5 -2.50 6.09 -6.41 6.56 -6.41 0.63 -15.16 3.28 -29.53 9.22 -6.88 2.81 -14.53 5.47 -16.88 6.09 -4.38 1.09 -4.38 0.94 -1.88 -2.81 7.34 -11.09 -3.59 -15.78 -16.72 -7.34 -6.09 3.91 -7.50 5.63 -7.50 9.38 0 7.34 2.66 8.28 17.66 6.56 9.69 -1.09 16.72 -3.13 25 -6.88 l11.56 -5.31 -0.16 6.41 c-0.16 5.94 0.16 6.41 4.38 6.88 3.13 0.47 6.56 -0.94 11.09 -4.22 l6.56 -4.69 1.72 5.94 c2.50 7.81 5.63 10.63 14.53 12.50 0.47 0 2.19 -0.94 3.91 -2.19z m117.50 -0.31 c-0.31 -0.78 -1.56 -3.28 -2.81 -5.63 -3.91 -7.97 2.03 -27.34 14.69 -47.03 l5.63 -8.75 11.72 0 c9.38 0 11.72 -0.47 11.72 -2.34 0 -1.88 -2.19 -2.34 -10.31 -2.34 l-10.31 0 5.78 -7.81 c8.44 -11.41 5 -11.72 -5.31 -0.63 -6.88 7.66 -10.47 10.31 -16.88 12.34 -7.66 2.34 -11.09 4.69 -9.53 6.41 0.47 0.31 3.75 -0.47 7.50 -1.72 3.59 -1.25 6.88 -2.34 7.19 -2.34 0.31 0 -2.19 4.69 -5.47 10.63 -3.28 5.78 -7.34 13.91 -8.91 17.97 -2.66 6.88 -3.91 7.97 -13.91 12.97 -12.66 6.25 -23.59 8.13 -27.81 5 -3.75 -2.81 -2.19 -6.41 4.38 -10 4.22 -2.19 5.63 -2.34 7.50 -0.78 2.66 2.03 5.16 -0.16 3.44 -2.97 -2.19 -3.59 -11.41 -1.41 -21.25 4.84 -11.09 7.19 -22.03 11.56 -25.63 10.16 -2.66 -0.94 -3.13 -6.56 -0.78 -7.97 0.94 -0.47 1.56 -1.56 1.56 -2.50 0 -2.97 -4.84 -1.25 -11.72 4.06 -7.03 5.31 -16.25 8.28 -19.38 6.25 -2.66 -1.56 -2.03 -6.25 1.41 -10.63 1.72 -2.19 3.13 -4.69 3.13 -5.63 0 -3.28 -2.97 -1.72 -6.88 3.44 -4.38 5.63 -5.31 13.28 -2.19 16.41 2.97 2.97 12.66 2.19 20 -1.72 l6.72 -3.59 3.75 3.75 c4.22 4.22 9.38 3.91 21.72 -1.25 5.78 -2.50 7.19 -2.66 7.81 -0.94 1.41 3.91 9.38 6.09 17.34 4.84 5.94 -0.78 17.03 -5 25.63 -9.69 0.47 -0.31 1.41 2.66 2.03 6.72 0.47 4.06 1.72 8.28 2.66 9.38 1.88 2.34 6.72 3.13 5.78 1.09z m164.38 -5.16 c0.78 -1.56 1.56 -4.38 1.56 -6.25 0 -4.06 12.66 -10.47 23.91 -11.88 4.06 -0.63 7.34 -1.56 7.34 -2.34 0 -2.19 -12.66 -1.41 -19.53 1.09 -11.72 4.53 -11.72 4.53 -11.72 0.16 0 -2.50 1.72 -5.47 4.84 -7.97 5.78 -5 8.91 -5.16 10.63 -0.63 l1.25 3.44 1.72 -3.28 c1.56 -2.66 1.41 -3.91 -0.78 -5.94 -5.16 -5.16 -17.81 0.47 -21.09 9.53 -1.09 2.97 -3.44 5.94 -5.78 6.88 -2.19 0.94 -6.88 3.44 -10.31 5.47 -3.44 2.19 -8.59 3.91 -11.41 3.91 -4.53 0 -5.16 -0.47 -5 -3.44 1.09 -12.66 -2.97 -14.69 -16.41 -8.59 -4.69 2.19 -8.59 3.75 -8.59 3.44 0 -0.31 2.19 -3.13 4.69 -6.09 5.63 -6.41 3.75 -8.91 -2.66 -3.59 -5 4.22 -31.25 16.41 -38.28 17.81 l-4.84 0.94 3.75 -5 c4.84 -6.72 2.81 -10.31 -5.94 -10.16 -4.69 0 -8.59 1.72 -16.09 7.03 -8.75 6.09 -10.78 6.88 -18.59 6.88 -9.69 0 -9.84 -0.31 -7.19 -12.50 l0.94 -4.69 -3.91 4.38 c-6.56 7.19 -4.84 16.41 3.75 19.06 1.72 0.63 7.03 -0.16 11.88 -1.56 7.97 -2.34 9.06 -2.34 11.56 0 2.34 2.19 4.69 2.34 16.56 1.09 11.09 -1.09 16.09 -2.50 25.16 -7.19 6.25 -3.13 11.72 -5.63 12.34 -5.63 0.47 0 -0.16 1.72 -1.56 3.91 -5.31 8.13 -1.72 11.41 5.16 4.84 4.53 -4.22 18.28 -11.88 21.41 -11.88 1.25 0 2.19 2.66 2.50 7.50 l0.47 7.34 8.91 0 c7.34 0 9.84 -0.94 15.78 -5.16 10.47 -7.50 13.59 -6.72 6.56 1.56 -4.22 5 -5.16 11.41 -1.88 12.66 2.66 0.94 7.03 -1.56 8.91 -5.16z m-411.56 -3.44 c6.41 -10.31 11.56 -15.31 20.16 -19.38 8.75 -4.22 13.28 -4.69 16.09 -1.88 1.41 1.41 1.88 1.09 1.88 -1.41 0 -6.25 -6.72 -6.72 -18.44 -1.25 -7.81 3.59 -8.13 3.59 -6.41 0.63 3.13 -5.94 -0.47 -5.31 -5.78 0.78 -5.47 6.41 -14.69 23.28 -14.69 27.03 0 3.91 3.13 2.03 7.19 -4.53z m-49.53 -9.53 c21.25 -7.81 43.75 -25.94 51.25 -41.41 7.50 -15.31 5.47 -31.25 -5.31 -41.09 -7.66 -7.19 -11.41 -8.44 -25.47 -8.28 -21.72 0.31 -43.28 10 -61.72 27.97 -10.31 9.84 -18.44 23.75 -17.66 29.38 0.47 2.66 1.25 1.88 4.06 -4.22 11.56 -25.47 49.22 -49.38 77.66 -49.38 15.63 0.16 27.50 11.56 27.50 26.88 0 15 -7.81 27.66 -25.63 40.94 -12.03 9.22 -24.84 15.47 -37.66 18.75 -4.22 1.09 -8.13 2.97 -8.44 4.06 -0.94 2.50 9.84 0.78 21.41 -3.59z m322.81 -18.28 c0 -3.44 -4.53 -2.81 -5.16 0.47 -0.47 2.19 0.16 2.81 2.34 2.34 1.56 -0.31 2.81 -1.56 2.81 -2.81z m133.59 -149.84 c51.09 -11.41 94.38 -36.72 127.81 -75.31 27.34 -31.25 46.88 -73.59 62.97 -135.47 23.91 -92.97 26.41 -193.13 6.88 -280.78 -4.38 -19.38 -10.31 -40.16 -11.25 -39.22 -0.31 0.31 0.78 8.91 2.50 19.06 6.25 37.03 7.19 50.31 7.19 103.75 0 55.94 -1.41 72.19 -9.53 117.19 -10.16 56.09 -34.06 126.56 -53.91 159.53 -38.13 63.59 -103.44 101.41 -174.69 101.41 -51.56 0 -101.41 -20.16 -137.03 -55.47 -27.50 -27.03 -45.47 -60.16 -55 -101.56 -12.19 -52.19 -14.84 -140.47 -5.63 -193.75 1.25 -7.66 2.66 -14.22 2.97 -14.53 0.47 -0.63 40.63 6.72 46.09 8.28 1.56 0.47 3.13 4.22 4.22 10.16 2.34 12.50 6.88 19.38 15.31 23.44 13.75 6.56 27.97 -0.16 36.56 -17.34 8.59 -17.34 6.09 -38.59 -5.94 -48.75 -6.09 -5.16 -10.78 -6.41 -19.22 -5.31 -7.97 1.09 -16.56 7.97 -20.78 16.41 -1.88 4.06 -4.22 6.41 -6.09 6.56 -1.56 0 -12.66 -1.88 -24.53 -4.22 -18.75 -3.59 -21.72 -4.53 -21.72 -7.03 0 -6.56 15.94 -56.88 21.25 -67.19 1.25 -2.50 3.13 -4.38 4.22 -4.22 0.94 0 12.03 2.03 24.53 4.38 l22.66 4.22 1.09 8.44 c1.09 9.22 4.38 14.69 12.19 19.84 9.22 6.41 20.16 3.75 30 -7.03 3.13 -3.44 6.41 -9.06 7.34 -12.34 2.19 -7.66 2.03 -21.72 -0.31 -28.28 -4.38 -11.72 -16.09 -18.75 -26.88 -15.78 -6.88 1.88 -15.47 9.22 -17.97 15.47 -1.09 2.50 -2.97 4.69 -4.06 4.69 -4.69 0 -40.63 -6.72 -41.72 -7.81 -2.34 -2.03 13.91 -31.25 34.53 -62.19 8.13 -12.19 8.75 -12.81 11.88 -10.78 1.72 1.25 11.41 6.56 21.41 11.88 17.50 9.22 18.28 9.84 19.38 15.47 4.22 22.66 31.09 15.47 31.09 -8.44 0 -16.72 -13.75 -25 -24.06 -14.69 -3.13 3.13 -3.28 2.97 -21.41 -6.88 -10.16 -5.47 -18.59 -10.63 -18.91 -11.56 -0.47 -1.41 17.34 -25 31.72 -41.72 57.97 -67.66 63.28 -74.38 74.22 -92.19 13.28 -21.56 19.38 -40.94 19.38 -60.94 0 -31.41 -16.56 -54.38 -51.41 -71.72 -24.38 -12.19 -56.56 -19.38 -101.72 -22.81 -22.19 -1.72 -24.22 -1.72 -34.38 1.41 -13.13 3.91 -16.88 6.25 -15.31 10 0.78 2.34 3.28 2.66 17.19 2.66 19.38 0 46.56 3.44 70.78 8.75 33.59 7.50 59.53 19.22 73.75 33.44 20.16 20 21.88 41.25 6.09 71.72 -8.13 15.47 -19.69 30 -54.69 68.13 -68.59 74.69 -103.28 122.34 -129.69 177.97 -20.16 42.50 -30.63 77.97 -38.13 129.22 -7.81 52.66 -4.84 138.44 6.25 188.91 16.56 74.06 56.25 128.44 117.81 161.41 20.63 11.09 45.94 19.06 79.69 25.16 2.19 0.31 16.56 0.47 32.03 0.16 21.41 -0.31 31.72 -1.25 42.97 -3.75z m-68.28 -221.25 c18.13 -4.69 32.03 -17.50 42.66 -39.06 17.03 -35.16 20.31 -80.31 9.06 -127.81 -2.19 -9.38 -3.75 -17.03 -3.59 -17.34 0.31 -0.16 5.16 -2.03 10.78 -4.06 57.81 -20.47 114.69 -56.25 152.50 -95.78 37.81 -39.38 45.31 -68.75 21.09 -82.19 -33.28 -18.44 -132.34 18.59 -202.50 75.63 -19.06 15.47 -42.81 40.31 -51.25 53.28 -8.91 14.06 -12.19 22.66 -12.19 32.81 -0.16 9.22 1.25 12.03 11.88 24.84 16.72 19.84 34.84 51.09 42.34 73.28 5.63 16.25 7.81 34.69 5.78 45.94 -4.06 21.25 -17.66 38.59 -34.38 43.44 -22.19 6.41 -44.06 -7.03 -58.28 -35.94 -7.19 -14.38 -11.88 -29.84 -13.44 -43.44 -1.72 -14.53 -3.75 -7.50 -3.75 12.81 0 29.06 6.09 45.47 23.28 62.66 11.25 11.09 23.28 17.97 37.66 21.09 11.41 2.50 12.03 2.50 22.34 -0.16z m-437.19 -50 c30.16 -8.91 53.44 -22.66 77.81 -46.09 55.63 -53.13 85.47 -125.47 79.22 -191.88 -5 -54.38 -24.84 -102.66 -62.81 -153.28 -16.72 -22.34 -39.06 -47.19 -83.28 -92.34 -22.19 -22.81 -46.41 -48.44 -53.75 -57.03 -32.81 -38.13 -56.09 -73.75 -66.56 -101.25 -5.47 -14.69 -5.47 -31.25 0.16 -43.28 6.72 -14.53 15.31 -21.72 34.22 -28.59 17.03 -6.09 31.72 -7.97 60.94 -7.81 51.25 0.31 84.38 8.59 115.31 29.22 9.84 6.56 10.63 6.72 14.22 2.66 3.59 -4.06 1.72 -7.34 -8.75 -15.78 -15.47 -12.34 -35.94 -20.47 -69.22 -27.34 -131.72 -27.34 -197.34 15.63 -171.88 112.50 12.34 47.34 41.25 97.34 85.94 149.22 11.88 13.75 23.75 25.63 73.13 73.44 55.31 53.28 91.09 113.13 104.38 174.22 3.13 14.38 2.66 53.44 -0.78 69.53 -5.16 24.06 -16.41 49.22 -31.09 68.75 -10 13.59 -32.03 35.47 -45.63 45.63 -15.47 11.72 -35.63 21.88 -53.44 27.19 -17.66 5.31 -42.97 5.94 -57.50 1.56 -20.16 -5.94 -29.69 -12.66 -53.91 -36.88 -25.63 -25.63 -36.09 -38.59 -45.16 -57.03 -7.97 -16.09 -9.84 -24.38 -9.84 -42.97 -0.16 -24.53 7.19 -45.47 23.75 -67.34 19.22 -25.63 53.59 -43.59 83.13 -43.59 35.47 0.16 69.84 24.06 82.66 57.66 13.28 35 -0.16 70.47 -32.50 86.41 -9.84 4.84 -11.72 5.16 -26.25 5.16 -14.38 0 -16.41 -0.47 -27.03 -5.31 -32.03 -15 -36.41 -46.09 -8.28 -59.38 7.81 -3.59 10.47 -4.06 25.16 -3.91 11.09 0.16 18.59 0.94 23.28 2.66 8.13 3.13 8.44 3.13 7.03 0.94 -1.88 -3.13 -20 -10.47 -30.16 -12.34 -15.78 -2.81 -32.03 1.88 -45 13.13 -22.34 19.38 -15.31 50.94 16.72 75 13.59 10 24.38 13.75 40.63 13.75 31.72 -0.16 60.78 -19.22 76.25 -50 11.09 -22.34 12.19 -45.78 3.44 -72.19 -12.19 -36.72 -45.47 -65.16 -85.31 -72.81 -15.94 -2.97 -26.09 -2.81 -44.69 0.94 -25.31 5.16 -45.16 15.78 -64.38 34.22 -27.81 26.88 -41.56 58.13 -41.56 95 0 28.91 7.03 54.22 23.13 83.28 18.13 32.50 58.59 60.31 101.88 69.53 16.56 3.59 48.91 2.03 66.41 -3.13z m237.34 -335.16 c11.72 -15.31 27.97 -34.38 50 -58.44 41.56 -45.47 62.97 -77.66 75.78 -114.22 5.78 -16.09 6.09 -24.38 0.63 -14.06 -9.84 18.44 -41.56 59.38 -74.22 95.47 -37.50 41.56 -50.94 59.53 -65.94 88.91 -6.88 13.44 -15 35.47 -15 40.94 0 1.56 4.69 -4.38 10.63 -12.97 5.78 -8.44 13.91 -20 18.13 -25.63z"/>
  <path d="M672.19 1359.22 c0.31 -0.94 1.25 -1.56 2.03 -1.56 0.78 0 1.72 0.63 2.03 1.56 0.31 0.94 -0.63 1.72 -2.03 1.72 -1.41 0 -2.34 -0.78 -2.03 -1.72z"/>
  <path d="M726.56 1359.38 c0 -2.97 8.59 -10.78 12.97 -11.88 6.72 -1.56 5.31 3.13 -2.66 8.75 -7.19 4.84 -10.31 5.78 -10.31 3.13z"/>
  <path d="M680.16 1355.31 c-1.09 -2.97 3.28 -6.88 7.66 -6.88 3.59 0 3.59 3.44 0 6.72 -3.75 3.28 -6.41 3.44 -7.66 0.16z"/>
  <path d="M751.56 1340 c0 -4.53 15.78 -33.44 21.72 -40.16 8.28 -9.06 8.28 -5.16 0.31 10.78 -5.63 10.94 -19.38 31.56 -21.25 31.56 -0.47 0 -0.78 -0.94 -0.78 -2.19z"/>
  <path d="M930.31 1358.44 c0.47 -1.41 0.94 -2.97 0.94 -3.44 0 -1.41 3.13 3.28 3.13 4.84 0 0.63 -1.09 1.09 -2.50 1.09 -1.72 0 -2.19 -0.78 -1.56 -2.50z"/>
  <path d="M937.97 1355.31 c-1.09 -2.97 3.28 -6.88 7.66 -6.88 3.59 0 3.59 1.72 -0.31 5.94 -3.91 4.06 -5.94 4.38 -7.34 0.94z"/>
  <path d="M977.34 773.59 c-10.31 -2.50 -17.19 -9.06 -18.91 -17.97 -4.53 -24.22 40.63 -73.75 98.59 -108.28 30.78 -18.44 72.66 -35.47 96.72 -39.69 29.69 -5 48.91 3.59 48.44 21.88 -0.63 18.75 -21.09 46.25 -54.53 73.44 -55.94 45.47 -136.25 78.75 -170.31 70.63z m195.47 -105.16 c12.97 -13.59 17.19 -20 19.53 -30.31 5 -21.56 -15.63 -29.53 -51.88 -20.31 -8.13 2.03 -19.22 5.63 -24.84 7.81 -12.19 5 -32.81 16.56 -32.81 18.44 0 0.78 1.41 0.63 3.13 -0.31 1.88 -0.94 9.84 -4.22 18.13 -7.03 31.72 -11.56 64.22 -17.34 72.50 -12.97 5.31 2.97 8.13 9.38 6.88 15.94 -0.94 5.47 -12.50 25.16 -20.31 35 -7.50 9.06 -1.41 5.16 9.69 -6.25z"/>
 </g>
</svg>